HIERARCHY
ROOT Hips
{
	OFFSET 0.00000 0.00000 0.00000
	CHANNELS 6 Xposition Yposition Zposition Zrotation Yrotation Xrotation 
	JOINT LHipJoint
	{
		OFFSET 0 0 0
		CHANNELS 3 Zrotation Yrotation Xrotation
		JOINT LeftUpLeg
		{
			OFFSET 1.70593 -1.62653 0.87602
			CHANNELS 3 Zrotation Yrotation Xrotation
			JOINT LeftLeg
			{
				OFFSET 2.32330 -6.38322 0.00000
				CHANNELS 3 Zrotation Yrotation Xrotation
				JOINT LeftFoot
				{
					OFFSET 2.45016 -6.73177 0.00000
					CHANNELS 3 Zrotation Yrotation Xrotation
					JOINT LeftToeBase
					{
						OFFSET 0.13029 -0.35798 1.96980
						CHANNELS 3 Zrotation Yrotation Xrotation
						End Site
						{
							OFFSET 0.00000 -0.00000 1.01270
						}
					}
				}
			}
		}
	}
	JOINT RHipJoint
	{
		OFFSET 0 0 0
		CHANNELS 3 Zrotation Yrotation Xrotation
		JOINT RightUpLeg
		{
			OFFSET -1.80599 -1.62652 0.87602
			CHANNELS 3 Zrotation Yrotation Xrotation
			JOINT RightLeg
			{
				OFFSET -2.45375 -6.74162 0.00000
				CHANNELS 3 Zrotation Yrotation Xrotation
				JOINT RightFoot
				{
					OFFSET -2.45828 -6.75406 0.00000
					CHANNELS 3 Zrotation Yrotation Xrotation
					JOINT RightToeBase
					{
						OFFSET -0.13801 -0.37917 1.88456
						CHANNELS 3 Zrotation Yrotation Xrotation
						End Site
						{
							OFFSET -0.00000 -0.00000 0.97281
						}
					}
				}
			}
		}
	}
	JOINT LowerBack
	{
		OFFSET 0 0 0
		CHANNELS 3 Zrotation Yrotation Xrotation
		JOINT Spine
		{
			OFFSET 0.01003 2.00576 -0.14267
			CHANNELS 3 Zrotation Yrotation Xrotation
			JOINT Spine1
			{
				OFFSET 0.00908 2.01191 0.01660
				CHANNELS 3 Zrotation Yrotation Xrotation
				JOINT Neck
				{
					OFFSET 0 0 0
					CHANNELS 3 Zrotation Yrotation Xrotation
					JOINT Neck1
					{
						OFFSET -0.05849 1.60301 0.18934
						CHANNELS 3 Zrotation Yrotation Xrotation
						JOINT Head
						{
							OFFSET 0.01775 1.59435 -0.07960
							CHANNELS 3 Zrotation Yrotation Xrotation
							End Site
							{
								OFFSET 0.01210 1.70732 -0.05248
							}
						}
					}
				}
				JOINT LeftShoulder
				{
					OFFSET 0 0 0
					CHANNELS 3 Zrotation Yrotation Xrotation
					JOINT LeftArm
					{
						OFFSET 3.15315 1.26460 0.30667
						CHANNELS 3 Zrotation Yrotation Xrotation
						JOINT LeftForeArm
						{
							OFFSET 4.97694 -0.00000 -0.00000
							CHANNELS 3 Zrotation Yrotation Xrotation
							JOINT LeftHand
							{
								OFFSET 3.14391 -0.00000 -0.00000
								CHANNELS 3 Zrotation Yrotation Xrotation
								JOINT LeftFingerBase
								{
									OFFSET 0 0 0
									CHANNELS 3 Zrotation Yrotation Xrotation
									JOINT LeftHandIndex1
									{
										OFFSET 0.59358 -0.00000 -0.00000
										CHANNELS 3 Zrotation Yrotation Xrotation
										End Site
										{
											OFFSET 0.47856 -0.00000 -0.00000
										}
									}
								}
								JOINT LThumb
								{
									OFFSET 0 0 0
									CHANNELS 3 Zrotation Yrotation Xrotation
									End Site
									{
										OFFSET 0.48587 -0.00000 0.48587
									}
								}
							}
						}
					}
				}
				JOINT RightShoulder
				{
					OFFSET 0 0 0
					CHANNELS 3 Zrotation Yrotation Xrotation
					JOINT RightArm
					{
						OFFSET -3.25568 1.35581 0.18982
						CHANNELS 3 Zrotation Yrotation Xrotation
						JOINT RightForeArm
						{
							OFFSET -4.90473 -0.00000 0.00000
							CHANNELS 3 Zrotation Yrotation Xrotation
							JOINT RightHand
							{
								OFFSET -3.21621 0.00006 -0.00004
								CHANNELS 3 Zrotation Yrotation Xrotation
								JOINT RightFingerBase
								{
									OFFSET 0 0 0
									CHANNELS 3 Zrotation Yrotation Xrotation
									JOINT RightHandIndex1
									{
										OFFSET -0.62353 -0.00000 -0.00000
										CHANNELS 3 Zrotation Yrotation Xrotation
										End Site
										{
											OFFSET -0.50270 -0.00000 -0.00000
										}
									}
								}
								JOINT RThumb
								{
									OFFSET 0 0 0
									CHANNELS 3 Zrotation Yrotation Xrotation
									End Site
									{
										OFFSET -0.51038 -0.00000 0.51038
									}
								}
							}
						}
					}
				}
			}
		}
	}
}
MOTION
Frames: 14
Frame Time: .0083333
7.6794 15.39 -38.1799 0 0 0 0 0 0 -21 0 0 0 0 0 0 0 0 0 0 0 0 0 0 21 0 0 0 0 0 0 0 0 0 0 0 0 0 0 0 0 0 0 0 0 0 0 -16 0 0 21 0 0 11 0 0 0 -8 0 0 0 0 0 0 0 0 0 0 0 0 0 0 0 0 0 0 0 0 8 0 0 0 0 0 0 0 0 0 0 0 0 0 0 0 0 0
7.6794 15.3900 -38.1799 -5.8051 -5.5064 7.6056 0.0000 0.0000 0.0000 -7.7117 -8.3622 -37.9825 2.1869 9.2449 26.5645 0.7052 2.9449 -17.1990 1.1110 -6.6964 -18.8190 0.0000 0.0000 0.0000 27.9160 -2.5427 -3.3730 -1.4729 -7.6689 21.7129 1.7571 27.2415 -6.1043 -0.0975 -2.0141 5.5446 5.4632 3.6036 0.5814 2.3007 5.0184 -3.2205 -0.8367 2.3806 -3.3953 -2.5615 -0.9530 -7.3691 -1.6099 -0.8383 8.1220 -0.1300 -0.5713 3.9780 -0.0000 -0.0000 0.0000 -93.6449 20.9706 4.3385 5.3504 -9.1745 -0.4296 -0.0000 -0.0000 11.0960 18.2230 -4.4012 -1.4473 -7.1250 0.0000 -0.0000 -6.3361 25.3436 3.0317 -0.0000 -0.0000 0.0000 85.8495 13.3817 30.4586 -26.4285 37.6287 -9.1480 0.0000 -0.0000 -17.7786 -19.7417 -33.2431 11.1298 7.1250 -0.0000 -0.0000 16.0292 -64.1454 -7.5287
7.7074 15.3924 -37.9310 -5.5911 -5.9880 7.7105 0.0000 0.0000 0.0000 -6.9329 -9.5875 -37.0051 1.6189 8.0225 22.7823 0.7707 3.6407 -18.2932 0.8615 -5.9188 -16.5491 0.0000 0.0000 0.0000 27.2374 -3.0206 -2.1334 -1.3567 -7.3730 20.8251 1.8337 28.0988 -6.7210 -0.1000 -2.0396 5.6151 5.1244 3.7025 0.4010 2.2336 5.1277 -3.2381 -0.7102 2.4457 -3.3274 -2.4426 -0.8773 -7.1912 -1.6859 -0.7554 7.8269 -0.1689 -0.5252 3.8361 -0.0000 -0.0000 0.0000 -93.8619 22.1792 2.1237 5.2532 -9.0111 -0.4142 -0.0000 -0.0000 12.1068 19.5697 -2.6457 -0.9401 -7.1250 0.0000 -0.0000 -5.3808 27.1619 2.3406 -0.0000 -0.0000 0.0000 85.3398 14.3577 31.5011 -27.2087 38.3775 -9.6284 0.0000 -0.0000 -18.4634 -20.5074 -33.0919 11.5420 7.1250 -0.0000 -0.0000 15.0099 -64.2079 -7.0609
7.7368 15.3798 -37.6804 -5.3855 -6.5765 7.9569 0.0000 0.0000 0.0000 -6.2117 -10.5342 -36.3855 1.1875 6.9155 19.4652 0.8780 4.1099 -19.6478 0.6183 -5.0324 -14.0010 0.0000 0.0000 0.0000 26.5208 -3.4259 -1.3608 -1.3047 -7.2358 20.4160 2.0149 28.5390 -5.6931 -0.0076 -0.5621 1.5447 4.7515 3.8543 0.1116 2.1843 5.3073 -3.3685 -0.5444 2.5444 -3.3185 -4.0299 -0.5641 -8.6751 0.3197 -0.2576 10.0890 0.7373 -0.2609 4.4516 0.0000 0.0000 0.0000 -94.1431 24.0288 3.5295 5.7949 -9.9197 -0.5033 -0.0000 -0.0000 9.3531 23.0278 1.3467 0.5723 -7.1250 0.0000 -0.0000 -2.8360 31.4354 0.9417 0.0000 0.0000 0.0000 84.8470 15.2252 32.3693 -27.8519 38.9796 -10.0304 0.0000 -0.0000 -18.7831 -18.5344 -32.7583 10.2822 7.1250 -0.0000 -0.0000 16.9896 -63.3599 -7.6806
7.7668 15.3692 -37.4495 -5.3164 -6.9731 8.3337 0.0000 0.0000 0.0000 -5.5601 -11.1390 -35.7787 0.7710 5.6068 15.6476 0.8452 5.3035 -20.0763 0.5858 -4.9005 -13.6249 0.0000 0.0000 0.0000 25.9937 -3.8590 -0.9217 -1.2606 -7.1172 20.0631 2.3009 28.1770 -1.8242 -0.2164 -2.9950 8.2648 4.6303 4.0425 -0.1432 2.0219 5.5421 -3.5320 -0.6356 2.6609 -3.3299 -5.1971 -0.4160 -10.2821 2.0438 -0.0145 12.0893 1.4867 -0.1009 5.3329 -0.0000 -0.0000 0.0000 -93.7978 27.0458 11.5947 7.7268 -13.1090 -0.8891 -0.0000 -0.0000 0.3271 18.6903 -0.0210 -0.0071 -7.1250 0.0000 -0.0000 -6.1981 29.9287 2.2912 -0.0000 -0.0000 0.0000 84.5636 16.3446 32.7296 -28.2775 39.3704 -10.2992 0.0000 -0.0000 -19.0789 -15.6129 -32.7992 8.6079 7.1250 -0.0000 -0.0000 20.2814 -62.6383 -8.8831
7.7939 15.3705 -37.2187 -5.1691 -7.3132 8.6542 0.0000 0.0000 0.0000 -5.0302 -11.6911 -34.9294 0.4416 4.2638 11.8200 0.7720 6.5661 -20.2505 0.5391 -4.7044 -13.0673 0.0000 0.0000 0.0000 25.3889 -3.9208 -0.3097 -1.2367 -7.0521 19.8699 2.3279 27.7759 -0.4782 -0.1553 -2.5392 6.9984 4.3482 4.1389 -0.5548 1.8831 5.6348 -3.5154 -0.5912 2.7192 -3.0884 -4.8136 -0.4869 -10.1324 1.5258 -0.1091 11.5486 1.2522 -0.1598 5.1431 0.0000 0.0000 0.0000 -94.2953 25.0551 -4.6371 5.1735 -8.8768 -0.4018 -0.0000 -0.0000 15.1071 15.3715 -4.8624 -1.3349 -7.1250 0.0000 -0.0000 -8.4494 24.9351 4.1426 0.0000 0.0000 0.0000 84.2974 17.7369 33.0894 -28.6288 39.6887 -10.5228 0.0000 -0.0000 -19.1955 -11.0310 -32.4931 5.9783 7.1250 -0.0000 -0.0000 24.9126 -61.2146 -10.1942
7.8219 15.3516 -36.9794 -5.2118 -7.7329 8.8743 0.0000 0.0000 0.0000 -5.0487 -11.0726 -34.2518 0.2198 3.0180 8.3289 0.7489 6.1835 -19.7406 0.3330 -3.7084 -10.2578 0.0000 0.0000 0.0000 25.0044 -3.7012 0.7370 -1.1886 -6.9184 19.4740 2.3522 27.3854 0.9968 -0.1572 -2.5547 7.0415 4.1210 4.1659 -1.1357 1.9569 5.6246 -3.3132 -0.3360 2.7339 -2.5808 -4.6791 -0.3589 -10.2347 1.3098 0.0752 11.1860 1.1749 -0.0737 5.0420 0.0000 0.0000 0.0000 -94.6554 27.3587 3.3375 6.8072 -11.6015 -0.6923 -0.0000 -0.0000 5.6814 12.7793 -3.4724 -0.7871 -7.1250 0.0000 -0.0000 -10.4852 26.3894 4.8080 0.0000 0.0000 0.0000 84.0289 19.0465 33.5710 -29.0694 40.0823 -10.8054 0.0000 -0.0000 -18.9148 -12.6643 -35.1014 7.3625 7.1250 -0.0000 -0.0000 25.7645 -63.9477 -12.2278
7.8506 15.3175 -36.7426 -5.4780 -8.2042 9.0106 0.0000 0.0000 0.0000 -4.8233 -10.3896 -33.6357 0.0889 1.9226 5.2918 0.5741 6.8509 -18.4286 0.4817 -4.4506 -12.3478 0.0000 0.0000 0.0000 24.8744 -3.6451 1.9384 -1.1115 -6.6979 18.8233 2.4145 28.2415 -0.4763 -0.1146 -2.1827 6.0110 4.1864 4.2761 -1.4002 2.0536 5.7507 -3.1756 -0.2450 2.8033 -2.2898 -4.8524 -0.3169 -10.1720 1.4921 0.1304 10.7437 1.2619 -0.0366 4.8922 -0.0000 -0.0000 0.0000 -95.1849 28.3670 1.9090 7.2039 -12.2544 -0.7743 -0.0000 -0.0000 5.7001 14.8149 -2.9872 -0.7897 -7.1250 0.0000 -0.0000 -8.9848 26.8633 4.0013 -0.0000 -0.0000 0.0000 83.7006 20.0696 33.9564 -29.5215 40.4797 -11.0977 0.0000 -0.0000 -18.8474 -17.8653 -36.6293 10.8856 7.1250 -0.0000 -0.0000 21.6722 -66.7741 -11.5963
7.8798 15.3152 -36.5060 -5.7954 -8.6886 9.0342 0.0000 0.0000 0.0000 -4.6051 -9.5796 -32.6047 0.0174 0.8505 2.3376 0.2318 8.7074 -16.0529 1.2511 -7.0915 -19.9868 0.0000 0.0000 0.0000 24.7567 -3.5465 3.3183 -1.0283 -6.4505 18.0974 2.3933 27.1883 2.3860 -0.1853 -2.7726 7.6463 4.4414 4.4528 -1.3546 2.0470 5.9861 -3.1169 -0.3904 2.9165 -2.2216 -4.8118 -0.2566 -10.1510 1.6907 0.1793 10.5359 1.3195 0.0044 4.8221 -0.0000 -0.0000 0.0000 -95.4568 29.0306 -0.6137 7.1084 -12.0974 -0.7542 -0.0000 -0.0000 6.8392 18.6267 -2.4943 -0.8404 -7.1250 0.0000 -0.0000 -6.1089 27.3334 2.6357 -0.0000 -0.0000 0.0000 83.3801 20.8654 34.1928 -29.9862 40.8815 -11.4006 0.0000 -0.0000 -19.0352 -20.7852 -35.1244 12.3192 7.1250 -0.0000 -0.0000 16.5747 -66.2303 -8.5902
7.9129 15.3138 -36.2650 -6.1316 -9.0281 8.9556 0.0000 0.0000 0.0000 -4.2158 -9.1355 -32.2484 0.0067 0.5282 1.4514 0.2206 8.2445 -15.3908 1.2265 -7.0239 -19.7862 0.0000 0.0000 0.0000 24.7244 -3.3513 4.9141 -0.9377 -6.1680 17.2727 2.2553 26.0521 3.9911 -0.1902 -2.8089 7.7471 4.7817 4.6342 -1.1455 1.9823 6.2394 -3.0857 -0.6563 3.0336 -2.2554 -4.0390 -0.0985 -10.2672 1.3976 0.3159 10.5986 1.1131 0.0831 4.8575 0.0000 -0.0000 0.0000 -95.3240 29.7765 -1.2787 7.0955 -12.0764 -0.7515 -0.0000 -0.0000 6.4194 21.9636 1.0208 0.4116 -7.1250 0.0000 -0.0000 -3.6703 31.0684 1.2520 0.0000 -0.0000 0.0000 83.1188 21.3704 34.2534 -30.5969 41.3995 -11.8024 0.0000 -0.0000 -19.2464 -21.7921 -33.6361 12.4873 7.1250 -0.0000 -0.0000 13.9672 -65.0890 -6.8464
7.9469 15.2887 -36.0219 -6.3939 -9.2513 8.9631 0.0000 0.0000 0.0000 -3.7316 -9.4630 -33.6894 0.0495 1.4356 3.9482 0.4369 6.2793 -16.3550 0.8505 -5.8816 -16.4414 0.0000 0.0000 0.0000 24.7108 -3.1029 6.4326 -0.8475 -5.8718 16.4129 2.1007 25.1510 4.1687 -0.1177 -2.2115 6.0905 5.0290 4.7645 -0.9443 1.9147 6.4291 -3.1298 -0.8787 3.1183 -2.3722 -4.4482 -0.2246 -10.4449 1.8147 0.1656 10.4670 1.2983 0.0219 4.8496 -0.0000 -0.0000 0.0000 -95.1775 30.4213 -1.9237 7.0800 -12.0508 -0.7482 -0.0000 -0.0000 6.0967 14.6285 -8.8191 -2.2916 -7.1250 0.0000 -0.0000 -8.8254 20.9162 5.1536 -0.0000 -0.0000 0.0000 82.9054 21.6386 34.2752 -31.2497 41.9408 -12.2364 0.0000 -0.0000 -19.3480 -22.7630 -33.4312 13.0166 7.1250 -0.0000 -0.0000 12.6257 -65.1613 -6.1997
7.9782 15.2642 -35.7766 -6.5513 -9.4503 9.0303 0.0000 0.0000 0.0000 -3.4071 -9.6784 -34.6891 0.1058 2.0971 5.7742 0.5055 5.4955 -16.5642 0.8538 -5.8928 -16.4736 0.0000 0.0000 0.0000 24.6239 -2.8004 7.5728 -0.7970 -5.6983 15.9115 1.9420 24.0734 5.0249 -0.0183 -0.8726 2.3984 5.1321 4.8617 -0.9257 1.8432 6.5601 -3.1515 -1.0094 3.1798 -2.3793 -4.6769 -0.2908 -10.4480 2.1582 0.0707 10.1681 1.4341 -0.0086 4.7601 0.0000 -0.0000 0.0000 -95.1362 30.8186 -3.8021 6.8618 -11.6915 -0.7034 -0.0000 -0.0000 7.0712 11.7633 -11.7232 -2.4228 -7.1250 0.0000 -0.0000 -10.7549 18.1319 6.9984 0.0000 -0.0000 0.0000 82.7709 21.8410 34.2034 -31.9008 42.4679 -12.6738 0.0000 -0.0000 -19.2390 -23.0478 -33.6496 13.2654 7.1250 -0.0000 -0.0000 12.4670 -65.4559 -6.2055
8.0071 15.2378 -35.5245 -6.5187 -9.6321 8.8695 0.0000 0.0000 0.0000 -3.4215 -9.8069 -35.0034 0.1696 2.6527 7.3132 0.5390 5.3305 -16.8394 1.0592 -6.5437 -18.3705 0.0000 0.0000 0.0000 24.3176 -2.6779 8.5544 -0.7952 -5.6921 15.8935 1.7799 22.8969 6.6784 -0.0008 -0.1797 0.4938 5.0150 4.9675 -0.7470 1.7015 6.7103 -3.1483 -1.1065 3.2539 -2.4639 -4.7286 -0.4453 -10.5060 2.3891 -0.1539 10.0407 1.4980 -0.1047 4.7382 0.0000 0.0000 0.0000 -94.9076 31.0741 -7.0067 6.4439 -11.0004 -0.6211 -0.0000 -0.0000 9.6123 11.1738 -10.3162 -2.0259 -7.1250 0.0000 -0.0000 -11.2215 19.5686 6.9483 0.0000 0.0000 0.0000 82.6712 21.8909 33.9072 -32.5220 42.9594 -13.0952 0.0000 -0.0000 -18.9822 -23.6057 -34.1720 13.7911 7.1250 -0.0000 -0.0000 12.2397 -66.1279 -6.2803
8.0334 15.2079 -35.2671 -6.2408 -9.8326 8.5301 0.0000 0.0000 0.0000 -3.8106 -9.9448 -34.9944 0.2642 3.3067 9.1339 0.6035 4.8841 -17.2657 0.9817 -6.3068 -17.6772 0.0000 0.0000 0.0000 23.6998 -2.6228 9.5531 -0.8309 -5.8154 16.2499 1.6268 21.8771 8.1796 -0.0617 -1.6022 4.4074 4.5410 5.0233 -0.4907 1.5749 6.7918 -3.0624 -0.9991 3.3037 -2.5508 -4.7673 -0.5767 -10.6221 2.6193 -0.3459 9.9076 1.5618 -0.1841 4.7236 0.0000 -0.0000 0.0000 -94.7273 31.2090 -9.5038 6.0598 -10.3619 -0.5500 -0.0000 -0.0000 11.5541 11.2723 -9.7925 -1.9416 -7.1250 0.0000 -0.0000 -11.1764 20.0871 6.7869 0.0000 -0.0000 0.0000 82.5172 21.9247 33.6710 -33.0293 43.3526 -13.4422 0.0000 -0.0000 -18.8863 -24.0294 -33.9993 13.9989 7.1250 -0.0000 -0.0000 11.5638 -66.0806 -5.9167
